<svg width="19" height="26" viewBox="0 0 19 26" fill="none" xmlns="http://www.w3.org/2000/svg">
<g clip-path="url(#clip0_4002_12)">
<path d="M1.872 20V3.2H10.08C11.28 3.2 12.32 3.44 13.2 3.92C14.096 4.4 14.784 5.056 15.264 5.888C15.76 6.72 16.008 7.672 16.008 8.744C16.008 9.752 15.76 10.664 15.264 11.48C14.784 12.296 14.096 12.944 13.2 13.424C12.32 13.904 11.28 14.144 10.08 14.144H6V20H1.872ZM6 10.856H9.336C10.184 10.856 10.808 10.656 11.208 10.256C11.624 9.84 11.832 9.328 11.832 8.72C11.832 8.112 11.624 7.608 11.208 7.208C10.808 6.808 10.192 6.608 9.36 6.608H6V10.856Z" fill="#014E86"/>
<path d="M2 23H17" stroke="#FF9900" stroke-width="2"/>
</g>
<defs>
<clipPath id="clip0_4002_12">
<rect width="19" height="26" fill="white"/>
</clipPath>
</defs>
</svg>
