<svg width="99" height="26" viewBox="0 0 99 26" fill="none" xmlns="http://www.w3.org/2000/svg">
<g clip-path="url(#clip0_1_3)">
<path d="M1.872 20V3.2H10.08C11.28 3.2 12.32 3.44 13.2 3.92C14.096 4.4 14.784 5.056 15.264 5.888C15.76 6.72 16.008 7.672 16.008 8.744C16.008 9.752 15.76 10.664 15.264 11.48C14.784 12.296 14.096 12.944 13.2 13.424C12.32 13.904 11.28 14.144 10.08 14.144H6V20H1.872ZM6 10.856H9.336C10.184 10.856 10.808 10.656 11.208 10.256C11.624 9.84 11.832 9.328 11.832 8.72C11.832 8.112 11.624 7.608 11.208 7.208C10.808 6.808 10.192 6.608 9.36 6.608H6V10.856ZM20.2311 20V7.616H24.1191V20H20.2311ZM22.1751 5.72C21.5831 5.72 21.0711 5.504 20.6391 5.072C20.2071 4.64 19.9911 4.128 19.9911 3.536C19.9911 2.928 20.2071 2.416 20.6391 2C21.0711 1.568 21.5831 1.352 22.1751 1.352C22.7831 1.352 23.2951 1.568 23.7111 2C24.1431 2.416 24.3591 2.928 24.3591 3.536C24.3591 4.128 24.1431 4.64 23.7111 5.072C23.2951 5.504 22.7831 5.72 22.1751 5.72ZM28.8251 20V7.616H32.7131V9.584C33.1771 8.88 33.7131 8.344 34.3211 7.976C34.9451 7.608 35.6331 7.424 36.3851 7.424C37.1851 7.424 37.8891 7.632 38.4971 8.048C39.1051 8.464 39.5611 9.024 39.8651 9.728C40.3451 8.976 40.9291 8.408 41.6171 8.024C42.3051 7.624 43.0731 7.424 43.9211 7.424C44.6891 7.424 45.3611 7.608 45.9371 7.976C46.5291 8.344 46.9851 8.856 47.3051 9.512C47.6411 10.168 47.8091 10.92 47.8091 11.768V20H43.9211V12.536C43.9211 11.912 43.7531 11.416 43.4171 11.048C43.0811 10.664 42.6331 10.472 42.0731 10.472C41.7211 10.472 41.3931 10.552 41.0891 10.712C40.8011 10.856 40.5291 11.088 40.2731 11.408C40.2731 11.472 40.2731 11.536 40.2731 11.6C40.2731 11.648 40.2731 11.704 40.2731 11.768V20H36.3851V12.536C36.3851 11.912 36.2171 11.416 35.8811 11.048C35.5451 10.664 35.0971 10.472 34.5371 10.472C33.8171 10.472 33.2091 10.792 32.7131 11.432V20H28.8251ZM58.3472 20.24C57.1152 20.24 56.0112 19.96 55.0352 19.4C54.0592 18.84 53.2832 18.08 52.7072 17.12C52.1472 16.144 51.8672 15.048 51.8672 13.832C51.8672 12.616 52.1472 11.528 52.7072 10.568C53.2832 9.592 54.0592 8.824 55.0352 8.264C56.0112 7.704 57.1072 7.424 58.3232 7.424C59.5552 7.424 60.6512 7.704 61.6112 8.264C62.5872 8.824 63.3552 9.592 63.9152 10.568C64.4912 11.528 64.7792 12.616 64.7792 13.832C64.7792 15.048 64.4912 16.144 63.9152 17.12C63.3552 18.08 62.5872 18.84 61.6112 19.4C60.6512 19.96 59.5632 20.24 58.3472 20.24ZM58.3232 17C58.8512 17 59.3152 16.864 59.7152 16.592C60.1152 16.32 60.4272 15.944 60.6512 15.464C60.8752 14.984 60.9872 14.44 60.9872 13.832C60.9872 13.208 60.8752 12.664 60.6512 12.2C60.4272 11.72 60.1152 11.344 59.7152 11.072C59.3152 10.8 58.8512 10.664 58.3232 10.664C57.8112 10.664 57.3472 10.8 56.9312 11.072C56.5312 11.344 56.2192 11.72 55.9952 12.2C55.7712 12.664 55.6592 13.208 55.6592 13.832C55.6592 14.44 55.7712 14.984 55.9952 15.464C56.2192 15.944 56.5312 16.32 56.9312 16.592C57.3472 16.864 57.8112 17 58.3232 17ZM68.9351 20V2.84L72.8231 2.24V12.536L77.1431 7.616H81.4391L76.3991 13.16L81.7991 20H76.9511L72.8231 14.528V20H68.9351ZM86.6779 25.256C86.1659 25.256 85.6299 25.192 85.0699 25.064V21.8C85.2139 21.816 85.3819 21.832 85.5739 21.848C85.7819 21.88 85.9979 21.896 86.2219 21.896C86.7499 21.896 87.1659 21.784 87.4699 21.56C87.7899 21.352 88.0459 21.048 88.2379 20.648L88.4299 20.24L83.8699 7.616H88.1659L90.6379 15.608L93.4699 7.616H97.6699L92.1019 21.392C91.7179 22.336 91.2859 23.088 90.8059 23.648C90.3419 24.224 89.7739 24.632 89.1019 24.872C88.4459 25.128 87.6379 25.256 86.6779 25.256Z" fill="#014E86"/>
<path d="M2 24.5L83 24" stroke="#FF9900" stroke-width="2"/>
</g>
<defs>
<clipPath id="clip0_1_3">
<rect width="99" height="26" fill="white"/>
</clipPath>
</defs>
</svg>
